# xmcd CD database file
# Copyright (C) 1993-1998 Ti Kan
#
# Track frame offsets:
#	150
#	10534
#	26095
#	35666
#	51601
#	63537
#	81322
#	91097
#	104321
#	115702
#	130616
#	138954
#	161360
#	172677
#	185581
#
# Disc length: 2687 seconds
#
# Revision: 1
# Processed by: cddbd v1.4b41PL1 Copyright (c) Steve Scherf et al.
# Submitted via: NotifyCDPlayer(CDDB) 1.51.3
#
DISCID=ba0a7d0f
DTITLE=Del Rey - Boogie Mysterioso
DYEAR=1900
DGENRE=
TTITLE0=Can't Get That Stuff No More
TTITLE1=Dad Blues
TTITLE2=Livin' Too Fast For Our Pay
TTITLE3=I Hate That Train
TTITLE4=Atheist Blues
TTITLE5=Hellhound on My Trail/Walkin' After Midnight
TTITLE6=Boogie Mysterioso
TTITLE7=Jazzin' Babies Blues
TTITLE8=Livin'
TTITLE9=I Thought About You
TTITLE10=Ramblin' Fool
TTITLE11=No Mo Freedom/Junko Partner
TTITLE12=Del's Dozens
TTITLE13=Devil Call Your Name
TTITLE14=Lady Behave
EXTD=
EXTT0=S.Heard
EXTT1=Del Rey
EXTT2=
EXTT3=Sam Chatman
EXTT4=Del Rey
EXTT5=R. Johnson - D.Hecht, A.Block
EXTT6=Mary Lou Williams
EXTT7=Richard M. Jones
EXTT8=
EXTT9=Johnny Mercer
EXTT10=
EXTT11=Trad. arranged by Del Rey
EXTT12=Trad. arranged by Del Rey
EXTT13=Del Rey
EXTT14=Bill Rahn/Bankrupt Music
PLAYORDER=
